<?xml version="1.0" standalone="no"?>
<!DOCTYPE svg PUBLIC "-//W3C//DTD SVG 20010904//EN"
 "http://www.w3.org/TR/2001/REC-SVG-20010904/DTD/svg10.dtd">
<svg version="1.0" xmlns="http://www.w3.org/2000/svg"
 width="500" height="500" viewBox="0 0 500.000000 500.000000"
 preserveAspectRatio="xMidYMid meet">
<metadata>
Created by potrace 1.16, written by Peter Selinger 2001-2019
</metadata>
<g transform="translate(0.000000,500.000000) scale(0.100000,-0.100000)"
fill="#000000" stroke="none">
<path d="M2395 4968 c-83 -78 -145 -229 -145 -352 0 -96 24 -164 111 -312 90
-155 113 -226 107 -345 l-4 -89 -102 -202 c-116 -232 -148 -332 -139 -433 12
-129 75 -233 165 -276 26 -12 55 -29 65 -37 15 -13 17 -13 17 -1 0 8 -21 35
-46 59 -65 63 -88 117 -87 210 0 101 21 151 147 353 174 279 205 413 140 611
-27 81 -56 133 -143 251 -97 132 -121 189 -121 288 0 111 44 277 79 297 10 6
11 10 3 10 -7 0 -28 -15 -47 -32z"/>
<path d="M2921 4314 c-55 -76 -74 -139 -69 -223 3 -60 11 -83 63 -186 59 -115
60 -120 60 -199 0 -79 -2 -84 -61 -206 -71 -143 -84 -184 -84 -259 0 -70 16
-122 52 -165 29 -35 128 -92 128 -74 0 5 -14 27 -32 49 -26 32 -33 51 -36 98
-5 72 10 109 106 255 92 139 116 210 110 320 -5 100 -30 157 -121 279 -78 105
-92 151 -77 258 6 39 15 79 20 90 8 15 7 19 -4 19 -8 0 -33 -25 -55 -56z"/>
<path d="M1837 3780 c-36 -28 -67 -98 -67 -151 0 -28 11 -67 30 -106 42 -91
46 -122 20 -179 -38 -85 -60 -156 -60 -196 0 -76 46 -142 109 -154 l33 -7 -16
31 c-24 46 -20 83 17 136 99 147 117 186 117 253 0 54 -37 135 -91 197 l-51
59 4 69 c3 75 -3 81 -45 48z"/>
<path d="M614 2528 c27 -617 232 -1196 577 -1629 85 -107 249 -265 357 -344
l82 -60 -510 -3 c-568 -2 -528 3 -490 -72 52 -102 266 -210 559 -285 133 -33
426 -81 609 -100 864 -86 1812 8 2264 224 124 59 218 150 218 210 0 21 -4 21
-510 23 l-511 3 78 55 c99 70 330 300 407 406 l59 81 53 -29 c204 -111 509
-58 739 126 142 113 254 282 295 441 24 94 27 245 5 324 -37 140 -130 256
-256 316 -94 45 -157 57 -280 53 l-101 -3 6 45 c3 25 9 118 12 208 l7 162
-1838 0 -1838 0 7 -152z m1788 -300 c9 -7 78 -157 154 -333 75 -176 140 -323
144 -328 3 -4 66 131 139 300 73 170 139 318 147 331 14 21 19 22 190 22 147
0 176 -2 180 -15 7 -18 -600 -1307 -626 -1330 -20 -18 -44 -19 -58 -2 -5 6
-67 149 -137 317 -70 168 -132 315 -139 327 -10 20 -26 -12 -145 -300 -74
-177 -141 -330 -149 -339 -21 -25 -49 -22 -67 5 -14 23 -597 1248 -615 1293
-15 39 4 44 180 44 146 0 169 -2 182 -17 9 -10 75 -156 148 -325 73 -170 136
-308 140 -308 4 0 67 145 139 323 117 285 148 347 171 347 3 0 13 -6 22 -12z
m2108 -174 c133 -63 210 -181 218 -331 6 -112 -11 -190 -63 -298 -96 -198
-273 -347 -476 -400 -92 -24 -245 -16 -316 16 l-52 24 55 90 c156 253 268 544
349 909 l6 28 107 -4 c94 -3 115 -7 172 -34z"/>
</g>
</svg>
